<?xml version="1.0" encoding="UTF-8" standalone="no"?>
<!-- Generator: Adobe Illustrator 16.0.0, SVG Export Plug-In . SVG Version: 6.00 Build 0)  -->

<svg
   version="1.1"
   id="Capa_1"
   x="0px"
   y="0px"
   width="460.298px"
   height="460.297px"
   viewBox="0 0 460.298 460.297"
   style="enable-background:new 0 0 460.298 460.297;"
   xml:space="preserve"
   sodipodi:docname="Home.svg"
   inkscape:version="1.2.1 (9c6d41e410, 2022-07-14)"
   xmlns:inkscape="http://www.inkscape.org/namespaces/inkscape"
   xmlns:sodipodi="http://sodipodi.sourceforge.net/DTD/sodipodi-0.dtd"
   xmlns="http://www.w3.org/2000/svg"
   xmlns:svg="http://www.w3.org/2000/svg"><defs
   id="defs43" /><sodipodi:namedview
   id="namedview41"
   pagecolor="#ffffff"
   bordercolor="#000000"
   borderopacity="0.25"
   inkscape:showpageshadow="2"
   inkscape:pageopacity="0.0"
   inkscape:pagecheckerboard="0"
   inkscape:deskcolor="#d1d1d1"
   showgrid="false"
   inkscape:zoom="0.51271245"
   inkscape:cx="230.1485"
   inkscape:cy="230.1485"
   inkscape:window-width="1920"
   inkscape:window-height="1131"
   inkscape:window-x="0"
   inkscape:window-y="32"
   inkscape:window-maximized="1"
   inkscape:current-layer="Capa_1" />
<g
   id="g8">
	<g
   id="g6">
		<path
   d="M230.149,120.939L65.986,256.274c0,0.191-0.048,0.472-0.144,0.855c-0.094,0.38-0.144,0.656-0.144,0.852v137.041    c0,4.948,1.809,9.236,5.426,12.847c3.616,3.613,7.898,5.431,12.847,5.431h109.63V303.664h73.097v109.64h109.629    c4.948,0,9.236-1.814,12.847-5.435c3.617-3.607,5.432-7.898,5.432-12.847V257.981c0-0.76-0.104-1.334-0.288-1.707L230.149,120.939    z"
   id="path2" />
		<path
   d="M457.122,225.438L394.6,173.476V56.989c0-2.663-0.856-4.853-2.574-6.567c-1.704-1.712-3.894-2.568-6.563-2.568h-54.816    c-2.666,0-4.855,0.856-6.57,2.568c-1.711,1.714-2.566,3.905-2.566,6.567v55.673l-69.662-58.245    c-6.084-4.949-13.318-7.423-21.694-7.423c-8.375,0-15.608,2.474-21.698,7.423L3.172,225.438c-1.903,1.52-2.946,3.566-3.14,6.136    c-0.193,2.568,0.472,4.811,1.997,6.713l17.701,21.128c1.525,1.712,3.521,2.759,5.996,3.142c2.285,0.192,4.57-0.476,6.855-1.998    L230.149,95.817l197.57,164.741c1.526,1.328,3.521,1.991,5.996,1.991h0.858c2.471-0.376,4.463-1.43,5.996-3.138l17.703-21.125    c1.522-1.906,2.189-4.145,1.991-6.716C460.068,229.007,459.021,226.961,457.122,225.438z"
   id="path4" />
	</g>
</g>
<g
   id="g10">
</g>
<g
   id="g12">
</g>
<g
   id="g14">
</g>
<g
   id="g16">
</g>
<g
   id="g18">
</g>
<g
   id="g20">
</g>
<g
   id="g22">
</g>
<g
   id="g24">
</g>
<g
   id="g26">
</g>
<g
   id="g28">
</g>
<g
   id="g30">
</g>
<g
   id="g32">
</g>
<g
   id="g34">
</g>
<g
   id="g36">
</g>
<g
   id="g38">
</g>
<path
   style="fill:#ffffff;stroke-width:1.95041"
   d="M 78.52858,411.31141 C 66.568273,407.85663 66.306003,406.04175 66.384835,327.2783 l 0.07086,-70.79925 79.206845,-65.17632 c 43.56377,-35.84697 81.16086,-65.54985 83.5491,-66.00639 3.39655,-0.64929 21.80225,13.54535 84.51183,65.17632 l 80.1696,66.00639 0.0451,70.79925 c 0.0507,79.84511 -0.0558,80.52764 -13.12341,84.15673 -4.23792,1.17693 -29.65095,2.03492 -60.45962,2.04122 l -53.14878,0.0109 V 357.90042 302.31371 H 230.1485 193.09069 v 55.58671 55.58671 l -54.12391,-0.17592 c -29.76814,-0.0967 -56.965336,-0.99666 -60.4382,-1.99982 z"
   id="path218" /><path
   style="fill:#ffffff;stroke-width:1.95041"
   d="M 12.007659,249.33323 C 4.3911661,240.07898 1.9732482,235.64184 2.3810419,231.66738 2.8314553,227.27753 20.776232,211.48855 106.16337,140.35291 162.94413,93.04911 212.02733,52.987943 215.23712,51.328092 c 7.55421,-3.906439 22.35471,-3.861876 29.99742,0.09032 3.30587,1.709528 21.67008,16.25866 40.80936,32.331404 l 34.79871,29.223174 0.5403,-29.531991 c 0.32438,-17.730115 1.39412,-30.560783 2.67683,-32.106356 2.90728,-3.503049 64.10185,-3.714817 67.58279,-0.233875 1.71897,1.718969 2.34049,18.278082 2.34049,62.357182 v 60.01668 l 30.71898,25.55031 c 36.85295,30.6522 37.28516,31.16219 32.56757,38.42731 -8.18972,12.61225 -19.1861,23.90282 -23.27995,23.90282 -2.73114,0 -39.61747,-29.51697 -103.55409,-82.86549 C 275.81404,132.91356 230.50665,95.831373 229.75247,96.084718 228.9983,96.338063 184.26259,133.36906 130.33979,178.37581 68.98341,229.58702 30.405082,260.48416 27.238592,260.9489 23.0125,261.56915 20.503033,259.65533 12.007659,249.33323 Z"
   id="path220" /></svg>
